# Blender 4.2.0
# www.blender.org
mtllib test.mtl
o Grid
v -2.005409 -0.044479 1.987339
v -1.205409 -0.044479 1.987339
v -0.405409 -0.044479 1.987339
v 0.394591 -0.044479 1.987339
v 1.194591 -0.044479 1.987339
v 1.994591 -0.044479 1.987339
v -2.005409 -0.044479 1.187339
v -1.205409 -0.044479 1.187339
v -0.405409 -0.044479 1.187339
v 0.394591 -0.044479 1.187339
v 1.194591 -0.044479 1.187339
v 1.994591 -0.044479 1.187339
v -2.005409 -0.044479 0.387339
v -1.205409 -0.044479 0.387339
v -0.405409 -0.044479 0.387339
v 0.394591 -0.044479 0.387339
v 1.194591 -0.044479 0.387339
v 1.994591 -0.044479 0.387339
v -2.005409 -0.044479 -0.412661
v -1.205409 -0.044479 -0.412661
v -0.405409 -0.044479 -0.412661
v 0.394591 -0.044479 -0.412661
v 1.194595 -0.043193 -0.412497
v 1.994737 -0.038372 -0.412395
v -2.008908 -0.005197 -1.209082
v -1.199140 0.138825 -1.203041
v -0.405349 -0.043039 -1.212660
v 0.394591 -0.038938 -1.212661
v 1.216412 0.324041 -1.133321
v 2.012063 0.066315 -1.216769
v -2.013742 0.019712 -2.021425
v -1.194965 0.112951 -2.034158
v -0.405334 -0.034551 -2.012722
v 0.389526 -0.004702 -2.018085
v 1.203349 0.167223 -2.044669
v 1.998482 -0.007813 -2.014562
v -2.005409 -0.044479 1.587339
v -1.605409 -0.044479 1.987339
v -1.205409 -0.044479 1.587339
v -1.605409 -0.044479 1.187339
v -0.805409 -0.044479 1.987339
v -0.405409 -0.044479 1.587339
v -0.805409 -0.044479 1.187339
v -0.005409 -0.044479 1.987339
v 0.394591 -0.044479 1.587339
v -0.005409 -0.044479 1.187339
v 0.794591 -0.044479 1.987339
v 1.194591 -0.044479 1.587339
v 0.794591 -0.044479 1.187339
v 1.594591 -0.044479 1.987339
v 1.994591 -0.044479 1.587339
v 1.594591 -0.044479 1.187339
v -2.005409 -0.044479 0.787339
v -1.205409 -0.044479 0.787339
v -1.605409 -0.044479 0.387339
v -0.405409 -0.044479 0.787339
v -0.805409 -0.044479 0.387339
v 0.394591 -0.044479 0.787339
v -0.005409 -0.044479 0.387339
v 1.194591 -0.044479 0.787339
v 0.794591 -0.044479 0.387339
v 1.994591 -0.044479 0.787339
v 1.594591 -0.044479 0.387339
v -2.005409 -0.044479 -0.012661
v -1.205409 -0.044479 -0.012661
v -1.605428 -0.044246 -0.412610
v -0.405409 -0.044479 -0.012661
v -0.805409 -0.044479 -0.412661
v 0.394591 -0.044479 -0.012661
v -0.005409 -0.044479 -0.412661
v 1.194591 -0.044479 -0.012661
v 0.794591 -0.044479 -0.412661
v 1.994591 -0.044479 -0.012661
v 1.594605 -0.038272 -0.412285
v -2.014659 0.017326 -0.804028
v -1.202132 0.081877 -0.778140
v -1.611439 0.181463 -1.179419
v -0.405398 -0.044355 -0.812653
v -0.797409 0.011075 -1.209669
v 0.394607 -0.039139 -0.812455
v -0.005409 -0.044479 -1.212661
v 1.195984 0.158617 -0.771886
v 0.797161 0.121935 -1.205632
v 2.015977 0.102127 -0.798828
v 1.614069 0.171393 -1.196839
v -2.011028 0.014048 -1.611553
v -1.185976 0.258740 -1.635811
v -1.604752 0.023406 -2.018934
v -0.404749 -0.021939 -1.612828
v -0.803228 0.011501 -2.015633
v 0.388017 -0.015148 -1.610663
v -0.005409 -0.044479 -2.012661
v 1.215713 0.378318 -1.619248
v 0.803936 0.143891 -2.049546
v 2.005352 -0.014818 -1.613881
v 1.611524 0.075705 -2.020733
v 1.640204 0.228486 -1.608229
v 0.803448 0.244229 -1.618705
v -0.005409 -0.044479 -1.612661
v -0.797576 0.071164 -1.618016
v -1.603961 0.256656 -1.627063
v 1.600259 0.165349 -0.785804
v 0.797361 0.107867 -0.787600
v -0.005409 -0.044479 -0.812661
v -0.797616 0.003295 -0.805236
v -1.614952 0.067153 -0.787940
v 1.594591 -0.044479 -0.012661
v 0.794591 -0.044479 -0.012661
v -0.005409 -0.044479 -0.012661
v -0.805409 -0.044479 -0.012661
v -1.605409 -0.044479 -0.012661
v 1.594591 -0.044479 0.787339
v 0.794591 -0.044479 0.787339
v -0.005409 -0.044479 0.787339
v -0.805409 -0.044479 0.787339
v -1.605409 -0.044479 0.787339
v 1.594591 -0.044479 1.587339
v 0.794591 -0.044479 1.587339
v -0.005409 -0.044479 1.587339
v -0.805409 -0.044479 1.587339
v -1.605409 -0.044479 1.587339
v -1.805444 -0.044101 -0.412612
v -1.005409 -0.044479 -0.412661
v 0.594591 -0.044479 -0.412661
v 1.394614 -0.041215 -0.412381
v -2.007822 -0.021085 -0.610040
v -1.204081 0.141520 -0.989608
v -1.814409 0.107480 -1.192109
v -0.405299 -0.043266 -1.012578
v -0.993463 0.094995 -1.207512
v 0.394592 -0.036132 -1.012618
v 1.200402 0.279308 -0.927655
v 0.594318 0.033920 -1.212370
v 2.020020 0.093795 -1.009761
v 1.419499 0.254139 -1.164561
v -2.012320 0.027683 -1.410788
v -1.186321 0.241089 -1.848380
v -1.814505 0.038792 -2.022916
v -0.405086 -0.023014 -1.812836
v -0.999833 0.063431 -2.025609
v 0.390529 -0.008451 -1.815957
v 1.214141 0.314637 -1.849733
v 0.591394 0.084350 -2.028316
v 1.999469 -0.003352 -1.814848
v 1.404699 0.138634 -2.030680
v -1.405409 -0.044479 -0.412661
v 0.994595 -0.044316 -0.412634
v 1.794649 -0.035385 -0.412253
v -2.016145 0.007068 -1.002459
v -1.204047 -0.019625 -0.603873
v -1.405385 0.180882 -1.190718
v -0.603283 -0.023265 -1.211581
v 0.394591 -0.044479 -0.612661
v 1.195370 0.036478 -0.599529
v 1.003450 0.289587 -1.159984
v 2.002441 0.042567 -0.604445
v 1.817984 0.132080 -1.213634
v -2.011763 0.023595 -1.819086
v -1.192862 0.174750 -1.413731
v -1.396225 0.080066 -2.025742
v -0.404944 -0.031292 -1.412706
v -0.604518 -0.002495 -2.013462
v 0.391218 -0.026770 -1.411645
v 1.219119 0.280924 -1.394144
v 1.006622 0.156029 -2.062204
v 2.008066 -0.003289 -1.415755
v 1.807445 0.039666 -2.017943
v 1.628489 0.169193 -1.820136
v 1.625827 0.189321 -1.405174
v 1.438648 0.308221 -1.604724
v 1.824801 0.085557 -1.612767
v 0.809063 0.244615 -1.844453
v 0.805619 0.194054 -1.414092
v 0.577390 0.186621 -1.608716
v 1.011021 0.337007 -1.635547
v -0.799456 0.065696 -1.819007
v -0.799085 0.033271 -1.414232
v -0.993698 0.146222 -1.625159
v -0.601808 0.043394 -1.613794
v -1.601986 0.144099 -1.827152
v -1.604141 0.262574 -1.402625
v -1.814117 0.129048 -1.614922
v -1.387456 0.310547 -1.635869
v 1.614244 0.180591 -0.984927
v 1.595264 0.076104 -0.599614
v 1.398911 0.166430 -0.777494
v 1.812972 0.173250 -0.790545
v 0.789999 0.149496 -0.985133
v 0.795801 -0.011100 -0.606862
v 0.595501 0.036713 -0.803966
v 0.995650 0.132910 -0.774695
v -0.791615 0.037759 -1.002500
v -0.805266 -0.043539 -0.612480
v -0.995066 0.041338 -0.792529
v -0.603749 -0.031812 -0.811502
v -1.617005 0.088080 -0.987121
v -1.609674 0.004582 -0.600776
v -1.818490 0.057657 -0.796042
v -1.412745 0.082864 -0.776982
v -1.407004 -0.009020 -0.600522
v -1.810082 0.004490 -0.605270
v -1.821954 0.069153 -0.990509
v -1.003752 -0.031765 -0.609104
v -0.992214 0.100994 -0.994673
v 0.996027 0.009812 -0.603021
v 0.594757 -0.034562 -0.611495
v 0.594842 0.061475 -1.005959
v 1.800423 0.087642 -0.599992
v 1.395505 0.059164 -0.598411
v 1.412080 0.225609 -0.953780
v -1.391645 0.279393 -1.408071
v -1.814598 0.155066 -1.404883
v -1.812891 0.081912 -1.821944
v -0.603164 0.010034 -1.412980
v -0.994456 0.097579 -1.415080
v -0.993743 0.155547 -1.834811
v 1.022778 0.255041 -1.412867
v 0.581630 0.103683 -1.408480
v 0.591834 0.167901 -1.824609
v 1.818391 0.051692 -1.413959
v 1.425301 0.263699 -1.395369
v 1.424524 0.240709 -1.828617
v 1.815853 0.085937 -1.818570
v 1.011232 0.312283 -1.870930
v -0.602753 0.039211 -1.814258
v -1.387055 0.230890 -1.841012
v 1.826839 0.182953 -1.002959
v 0.985247 0.238655 -0.941487
v -0.600208 -0.010768 -1.009200
v -1.414434 0.116578 -0.986821
vn -0.0056 1.0000 0.0032
vn 0.0149 0.9998 0.0153
vn -0.0999 0.9948 0.0189
vn 0.0248 0.9980 -0.0576
vn -0.0134 0.9996 0.0267
vn 0.1805 0.9541 0.2390
vn -0.0147 0.9998 0.0155
vn -0.0000 1.0000 -0.0000
vn -0.0180 0.9990 0.0407
vn 0.0012 1.0000 0.0006
vn 0.0032 1.0000 0.0004
vn -0.2230 0.9267 0.3024
vn -0.3983 0.8528 -0.3377
vn -0.0296 0.8448 0.5342
vn -0.0048 0.9998 0.0203
vn -0.0134 0.9998 0.0150
vn 0.1248 0.9770 0.1729
vn 0.1360 0.8887 0.4378
vn 0.2783 0.8983 -0.3399
vn 0.3608 0.9139 -0.1860
vn -0.2913 0.7803 -0.5534
vn -0.3690 0.9279 -0.0536
vn -0.1607 0.9856 0.0534
vn 0.0273 0.9872 0.1571
vn -0.0248 0.9994 0.0248
vn -0.3164 0.9033 0.2897
vn -0.0318 0.9554 0.2937
vn -0.2131 0.8222 -0.5278
vn 0.1517 0.9822 0.1104
vn 0.3369 0.8937 0.2964
vn 0.0036 0.9983 0.0586
vn 0.2030 0.9771 -0.0632
vn 0.3132 0.9484 0.0487
vn -0.0138 0.9980 0.0613
vn -0.0156 0.9201 0.3913
vn -0.6951 0.7173 -0.0485
vn -0.0685 0.9404 0.3330
vn 0.1327 0.8685 0.4775
vn -0.0371 0.9071 0.4193
vn 0.0757 0.9870 -0.1419
vn 0.0459 0.9880 0.1474
vn 0.2869 0.9536 0.0914
vn -0.3942 0.9107 -0.1237
vn -0.3802 0.9111 0.1590
vn -0.4008 0.9124 -0.0832
vn -0.1113 0.9849 0.1326
vn 0.0003 1.0000 0.0054
vn -0.4543 0.8684 0.1986
vn 0.3075 0.9514 -0.0135
vn 0.2511 0.9409 0.2273
vn 0.3756 0.9266 0.0189
vn 0.0962 0.9694 -0.2258
vn -0.0568 0.8992 0.4337
vn 0.0298 0.9990 0.0346
vn -0.0878 0.9787 -0.1855
vn 0.0002 1.0000 0.0008
vn -0.0019 1.0000 -0.0000
vn -0.0003 1.0000 0.0003
vn 0.0002 1.0000 0.0002
vn -0.2928 0.9547 -0.0529
vn 0.2071 0.9734 -0.0976
vn 0.3384 0.8980 -0.2813
vn 0.1142 0.9919 0.0563
vn 0.3888 0.9213 0.0068
vn -0.1877 0.9613 0.2017
vn 0.3563 0.9030 0.2399
vn 0.1311 0.9429 0.3063
vn -0.1151 0.8089 0.5765
vn -0.0000 1.0000 0.0047
vn 0.0631 0.9980 0.0003
vn -0.0236 0.8806 0.4732
vn -0.1180 0.8187 0.5620
vn 0.3236 0.9060 -0.2728
vn 0.1031 0.9664 -0.2356
vn 0.3560 0.9109 0.2088
vn 0.2588 0.9604 0.1033
vn 0.5917 0.7872 0.1737
vn -0.1678 0.9575 0.2345
vn -0.0662 0.9810 0.1823
vn 0.0408 0.9990 0.0156
vn -0.0027 0.9688 0.2479
vn -0.4881 0.8704 -0.0647
vn 0.2299 0.9645 -0.1298
vn -0.1849 0.9101 0.3708
vn 0.3450 0.9353 -0.0786
vn 0.4619 0.8869 0.0090
vn 0.1449 0.9804 0.1335
vn 0.2472 0.8117 -0.5292
vn -0.3902 0.9182 -0.0681
vn -0.0534 0.9748 0.2165
vn -0.5218 0.8366 0.1669
vn 0.3117 0.8148 -0.4888
vn -0.3076 0.8768 0.3697
vn -0.5409 0.8410 0.0135
vn -0.3965 0.8822 0.2540
vn 0.0333 0.7850 -0.6186
vn -0.0033 1.0000 0.0065
vn -0.0534 0.9738 0.2212
vn 0.2145 0.9665 0.1410
vn 0.1099 0.8740 0.4733
vn -0.0209 0.9261 0.3766
vn 0.4148 0.8678 0.2737
vn -0.6482 0.7382 0.1869
vn 0.2972 0.8479 -0.4390
vn 0.0314 0.9948 0.0967
vn -0.0593 0.9923 0.1091
vn 0.4584 0.8886 -0.0179
vn -0.3981 0.9151 0.0639
vn -0.4124 0.9100 0.0432
vn -0.1087 0.7966 -0.5946
vn 0.3254 0.9252 0.1952
vn -0.0535 0.9285 0.3676
vn 0.3974 0.9088 -0.1271
vn -0.1518 0.8077 0.5698
vn -0.1033 0.9184 -0.3819
vn 0.5133 0.8459 -0.1447
vn 0.3752 0.9241 0.0728
vn -0.4783 0.8771 0.0426
vn -0.0572 0.8363 0.5453
vn 0.3423 0.9311 -0.1264
vn -0.0715 0.9940 0.0829
vn -0.2541 0.9672 0.0062
vn -0.2269 0.8683 0.4412
vn -0.0545 0.9983 0.0197
vn -0.1908 0.9752 -0.1120
vn -0.3022 0.8606 -0.4100
vn 0.1315 0.9908 -0.0312
vn 0.1976 0.9801 -0.0183
vn 0.3038 0.9353 0.1816
vn 0.0545 0.9985 -0.0018
vn -0.3121 0.8677 -0.3869
vn 0.1804 0.9337 0.3091
vn 0.3404 0.8767 -0.3398
vn -0.0185 0.9998 -0.0047
vn 0.0298 0.8755 0.4824
vn 0.1950 0.9423 0.2722
vn 0.1375 0.9902 -0.0248
vn -0.2097 0.9597 0.1870
vn 0.3867 0.9205 0.0554
vn -0.0852 0.9963 0.0107
vn -0.2882 0.9083 0.3032
vn -0.3672 0.8765 0.3112
vn -0.0209 0.9980 0.0591
vn -0.5480 0.8211 -0.1595
vn 0.1306 0.9707 0.2019
vn 0.2680 0.8953 0.3558
vn -0.0417 0.8662 0.4980
vn -0.5211 0.8493 -0.0842
vn 0.3538 0.9338 0.0539
vn 0.2837 0.8995 -0.3323
vn 0.0334 0.9754 0.2181
vn -0.1274 0.9799 -0.1536
vt 0.983153 0.563497
vt 0.983153 0.985408
vt 0.775898 0.985408
vt 0.983153 0.774453
vt 0.568644 0.985408
vt 0.568644 0.774453
vt 0.568644 0.563497
vt 0.775898 0.774453
vt 0.775898 0.563497
s 0
usemtl MARSNULL
f 71/1/1 23/2/1 147/3/1
f 73/1/2 24/2/2 148/3/2
f 141/4/3 34/2/3 92/5/3
f 92/2/4 33/5/4 139/6/4
f 153/4/5 80/2/5 104/5/5
f 193/6/6 195/3/6 105/5/6
f 107/1/7 74/2/7 125/3/7
f 108/1/8 72/2/8 124/3/8
f 110/1/8 68/2/8 123/3/8
f 21/1/9 195/3/9 193/6/9
f 43/5/8 120/7/8 42/1/8 9/2/8
f 46/5/8 119/7/8 45/1/8 10/2/8
f 49/5/8 118/7/8 48/1/8 11/2/8
f 52/5/8 117/7/8 51/1/8 12/2/8
f 55/5/8 116/7/8 54/1/8 14/2/8
f 57/5/8 115/7/8 56/1/8 15/2/8
f 59/5/8 114/7/8 58/1/8 16/2/8
f 61/5/8 113/7/8 60/1/8 17/2/8
f 63/5/8 112/7/8 62/1/8 18/2/8
f 68/5/8 110/7/8 67/1/8 21/2/8
f 66/5/10 111/7/10 146/3/10
f 70/7/8 22/1/8 153/4/8 104/5/8
f 70/5/8 109/7/8 69/1/8 22/2/8
f 71/5/8 17/7/8 63/1/8 107/2/8
f 81/2/11 27/5/11 129/6/11 104/1/11
f 128/3/12 202/8/12 196/4/12 77/2/12
f 180/4/13 213/8/13 182/9/13 101/1/13
f 185/6/14 74/7/14 148/9/14 208/8/14
f 107/7/15 73/1/15 148/3/15 74/5/15
f 104/7/16 80/1/16 131/4/16
f 179/3/17 100/5/17 177/6/17 214/8/17
f 76/5/18 150/6/18 203/8/18 194/3/18
f 220/8/19 157/9/19 30/1/19 166/4/19
f 157/3/20 227/8/20 134/4/20 30/2/20
f 160/3/21 88/5/21 180/6/21 226/8/21
f 172/6/22 98/7/22 175/9/22 224/8/22
f 101/5/23 181/6/23 211/8/23 183/3/23
f 200/8/24 146/9/24 20/1/24 150/4/24
f 206/8/25 153/6/25 22/7/25 124/9/25
f 98/5/26 173/6/26 217/8/26 175/3/26
f 106/2/27 198/3/27 201/8/27 197/4/27
f 165/3/28 94/5/28 172/6/28 224/8/28
f 161/4/29 214/8/29 152/9/29 27/1/29
f 159/4/30 211/8/30 151/9/30 26/1/30
f 161/6/31 27/7/31 81/1/31
f 164/6/32 29/7/32 135/9/32 221/8/32
f 135/3/33 210/8/33 184/4/33 85/2/33
f 81/7/34 28/1/34 163/4/34
f 199/3/35 106/5/35 197/6/35 200/8/35
f 141/6/36 91/7/36 174/9/36 219/8/36
f 205/8/37 147/9/37 23/1/37 154/4/37
f 132/6/38 82/7/38 186/9/38 210/8/38
f 102/5/39 185/6/39 208/8/39 187/3/39
f 85/5/40 184/6/40 227/8/40 157/3/40
f 151/3/41 230/8/41 127/4/41 26/2/41
f 215/8/42 159/6/42 26/7/42 130/9/42
f 83/2/43 133/3/43 207/8/43 188/4/43
f 188/4/44 207/8/44 190/9/44 103/1/44
f 213/8/45 158/6/45 86/7/45 182/9/45
f 230/8/46 196/6/46 106/7/46 199/9/46
f 129/6/47 78/7/47 104/1/47
f 163/6/48 28/7/48 133/9/48 218/8/48
f 139/4/49 225/8/49 179/9/49 89/1/49
f 69/7/8 108/1/8 124/3/8 22/5/8
f 204/8/50 194/9/50 105/1/50 192/4/50
f 227/8/51 187/9/51 84/1/51 134/4/51
f 226/8/52 183/9/52 87/1/52 137/4/52
f 154/6/53 23/7/53 125/9/53 209/8/53
f 203/8/54 123/9/54 68/1/54 193/4/54
f 142/4/55 224/8/55 175/9/55 93/1/55
f 107/5/8 63/7/8 18/1/8 73/2/8
f 69/5/8 16/7/8 61/1/8 108/2/8
f 65/7/8 110/1/8 123/3/8 20/5/8
f 108/5/8 61/7/8 17/1/8 71/2/8
f 21/5/8 67/7/8 109/1/8 70/2/8
f 67/5/8 15/7/8 59/1/8 109/2/8
f 109/5/8 59/7/8 16/1/8 69/2/8
f 65/5/8 14/7/8 57/1/8 110/2/8
f 111/1/56 66/2/56 122/3/56 64/7/56
f 110/5/8 57/7/8 15/1/8 67/2/8
f 64/5/8 13/7/8 55/1/8 111/2/8
f 19/5/57 64/7/57 122/3/57
f 108/7/58 71/1/58 147/3/58 72/5/58
f 111/5/8 55/7/8 14/1/8 65/2/8
f 17/5/8 60/7/8 112/1/8 63/2/8
f 60/5/8 11/7/8 52/1/8 112/2/8
f 112/5/8 52/7/8 12/1/8 62/2/8
f 16/5/8 58/7/8 113/1/8 61/2/8
f 58/5/8 10/7/8 49/1/8 113/2/8
f 113/5/8 49/7/8 11/1/8 60/2/8
f 15/5/8 56/7/8 114/1/8 59/2/8
f 56/5/8 9/7/8 46/1/8 114/2/8
f 114/5/8 46/7/8 10/1/8 58/2/8
f 14/5/8 54/7/8 115/1/8 57/2/8
f 54/5/8 8/7/8 43/1/8 115/2/8
f 115/5/8 43/7/8 9/1/8 56/2/8
f 13/5/8 53/7/8 116/1/8 55/2/8
f 53/5/8 7/7/8 40/1/8 116/2/8
f 116/5/8 40/7/8 8/1/8 54/2/8
f 11/5/8 48/7/8 117/1/8 52/2/8
f 48/5/8 5/7/8 50/1/8 117/2/8
f 117/5/8 50/7/8 6/1/8 51/2/8
f 10/5/8 45/7/8 118/1/8 49/2/8
f 45/5/8 4/7/8 47/1/8 118/2/8
f 118/5/8 47/7/8 5/1/8 48/2/8
f 9/5/8 42/7/8 119/1/8 46/2/8
f 42/5/8 3/7/8 44/1/8 119/2/8
f 119/5/8 44/7/8 4/1/8 45/2/8
f 8/5/8 39/7/8 120/1/8 43/2/8
f 39/5/8 2/7/8 41/1/8 120/2/8
f 120/5/8 41/7/8 3/1/8 42/2/8
f 7/5/8 37/7/8 121/1/8 40/2/8
f 37/5/8 1/7/8 38/1/8 121/2/8
f 121/5/8 38/7/8 2/1/8 39/2/8
f 78/5/59 21/7/59 70/1/59 104/2/59
f 219/8/60 174/9/60 98/1/60 172/4/60
f 79/5/61 192/6/61 229/8/61 152/3/61
f 222/8/62 170/9/62 97/1/62 168/4/62
f 229/8/63 195/9/63 78/1/63 129/4/63
f 176/4/64 216/8/64 178/9/64 100/1/64
f 155/3/65 228/8/65 132/4/65 29/2/65
f 87/2/66 183/3/66 211/8/66 159/4/66
f 194/3/67 203/8/67 193/4/67 105/2/67
f 191/3/68 205/8/68 154/4/68 82/2/68
f 193/6/69 68/7/69 21/1/69
f 21/1/70 78/2/70 195/3/70
f 186/3/71 209/8/71 185/4/71 102/2/71
f 103/5/72 189/6/72 205/8/72 191/3/72
f 222/8/73 142/6/73 93/7/73 170/9/73
f 162/3/74 90/5/74 176/6/74 225/8/74
f 170/3/75 221/8/75 169/4/75 97/2/75
f 89/2/76 179/3/76 214/8/76 161/4/76
f 171/3/77 97/5/77 169/6/77 220/8/77
f 198/3/78 75/5/78 126/6/78 201/8/78
f 201/8/79 126/6/79 19/7/79 122/9/79
f 99/2/80 89/5/80 161/6/80 81/1/80
f 197/4/81 201/8/81 122/9/81 66/1/81
f 101/2/82 182/3/82 212/8/82 181/4/82
f 162/3/83 225/8/83 139/4/83 33/2/83
f 93/2/84 175/3/84 217/8/84 164/4/84
f 130/3/85 204/8/85 192/4/85 79/2/85
f 144/4/86 223/8/86 171/9/86 95/1/86
f 214/8/87 177/6/87 79/7/87 152/9/87
f 145/3/88 35/5/88 142/6/88 222/8/88
f 133/3/89 28/5/89 131/6/89 207/8/89
f 230/8/90 199/9/90 76/1/90 127/4/90
f 136/6/91 25/7/91 128/9/91 212/8/91
f 32/5/92 137/6/92 216/8/92 140/3/92
f 228/8/93 188/6/93 103/7/93 191/9/93
f 155/3/94 83/5/94 188/6/94 228/8/94
f 212/8/95 128/9/95 77/1/95 181/4/95
f 35/2/96 165/3/96 224/8/96 142/4/96
f 71/7/97 107/1/97 125/3/97 23/5/97
f 189/6/98 72/7/98 147/9/98 205/8/98
f 192/6/99 105/7/99 195/9/99 229/8/99
f 156/4/100 208/8/100 148/9/100 24/1/100
f 181/6/101 77/7/101 151/9/101 211/8/101
f 178/3/102 87/5/102 159/6/102 215/8/102
f 91/5/103 163/6/103 218/8/103 174/3/103
f 145/3/104 222/8/104 168/4/104 96/2/104
f 150/6/105 20/7/105 123/9/105 203/8/105
f 189/4/106 206/8/106 124/9/106 72/1/106
f 65/1/8 20/2/8 146/3/8 111/7/8
f 216/8/107 137/6/107 87/7/107 178/9/107
f 207/8/108 131/6/108 80/7/108 190/9/108
f 128/3/109 25/5/109 149/6/109 202/8/109
f 32/2/110 160/3/110 226/8/110 137/4/110
f 100/2/111 178/3/111 215/8/111 177/4/111
f 77/5/112 196/6/112 230/8/112 151/3/112
f 169/6/113 85/7/113 157/9/113 220/8/113
f 228/8/114 191/9/114 82/1/114 132/4/114
f 88/2/115 138/3/115 213/8/115 180/4/115
f 168/6/116 97/7/116 171/9/116 223/8/116
f 221/8/117 135/9/117 85/1/117 169/4/117
f 173/6/118 83/7/118 155/9/118 217/8/118
f 82/5/119 154/6/119 209/8/119 186/3/119
f 167/3/120 223/8/120 144/4/120 36/2/120
f 196/4/121 202/8/121 198/9/121 106/1/121
f 202/8/122 149/6/122 75/7/122 198/9/122
f 190/3/123 206/8/123 189/4/123 103/2/123
f 163/4/124 91/2/124 99/5/124 81/7/124
f 138/3/125 31/5/125 158/6/125 213/8/125
f 226/8/126 180/6/126 101/7/126 183/9/126
f 152/3/127 229/8/127 129/4/127 27/2/127
f 26/5/128 127/6/128 204/8/128 130/3/128
f 29/5/129 132/6/129 210/8/129 135/3/129
f 99/1/130 92/2/130 139/6/130 89/7/130
f 94/2/131 143/3/131 219/8/131 172/4/131
f 170/3/132 93/5/132 164/6/132 221/8/132
f 140/3/133 216/8/133 176/4/133 90/2/133
f 131/4/134 28/2/134 81/5/134 104/7/134
f 76/2/135 199/3/135 200/8/135 150/4/135
f 204/8/136 127/6/136 76/7/136 194/9/136
f 225/8/137 176/6/137 100/7/137 179/9/137
f 80/5/138 153/6/138 206/8/138 190/3/138
f 95/2/139 171/3/139 220/8/139 166/4/139
f 99/7/140 91/1/140 141/4/140 92/5/140
f 174/3/141 218/8/141 173/4/141 98/2/141
f 218/8/142 133/9/142 83/1/142 173/4/142
f 184/6/143 102/7/143 187/9/143 227/8/143
f 143/3/144 34/5/144 141/6/144 219/8/144
f 210/8/145 186/9/145 102/1/145 184/4/145
f 84/2/146 187/3/146 208/8/146 156/4/146
f 209/8/147 125/9/147 74/1/147 185/4/147
f 182/3/148 86/5/148 136/6/148 212/8/148
f 177/4/149 215/8/149 130/9/149 79/1/149
f 96/5/150 168/6/150 223/8/150 167/3/150
f 200/8/151 197/6/151 66/7/151 146/9/151
f 164/4/152 217/8/152 155/9/152 29/1/152
f 40/5/8 121/7/8 39/1/8 8/2/8
o Text
